<?xml version="1.0" ?><svg id="Layer_1" style="enable-background:new 0 0 60 60;" version="1.1" viewBox="0 0 60 60" xml:space="preserve" xmlns="http://www.w3.org/2000/svg" xmlns:xlink="http://www.w3.org/1999/xlink"><path d="M50.7,32c0.9-1.7,1.3-3.6,1.3-5.5c0-6.6-5.4-12-12-12c-2.7,0-5.3,0.9-7.4,2.5c-1.5-2.2-4-3.5-6.6-3.5  c-3.4,0-6.3,2.1-7.5,5.1c-0.5-0.1-1-0.1-1.5-0.1c-4.4,0-8,3.6-8,8c0,1.7,0.6,3.4,1.6,4.8C7.8,32.6,6,35.4,6,38.5c0,4.4,3.6,8,8,8h32  c4.4,0,8-3.6,8-8C54,35.9,52.7,33.5,50.7,32z M46,44.5H14c-3.3,0-6-2.7-6-6c0-2.8,1.9-5.2,4.6-5.8l1.8-0.5L13,31  c-1.3-1.1-2-2.8-2-4.5c0-3.3,2.7-6,6-6c0.6,0,1.3,0.1,1.9,0.3l1,0.3l0.3-1.1c0.7-2.7,3-4.6,5.8-4.6c2.3,0,4.5,1.4,5.5,3.5l0.6,1.3  l1-1c1.9-1.8,4.3-2.8,6.9-2.8c5.5,0,10,4.5,10,10c0,1.9-0.5,3.7-1.5,5.3l-0.6,0.9l0.9,0.5c1.9,1,3.2,3.1,3.2,5.3  C52,41.8,49.3,44.5,46,44.5z"/><path d="M22,34.5h-3.6l2.6-7.7l-1.9-0.6l-3,9c-0.1,0.3-0.1,0.6,0.1,0.9s0.5,0.4,0.8,0.4h5v4h2v-9h-2V34.5z"/><path d="M42,34.5h-3.6l2.6-7.7l-1.9-0.6l-3,9c-0.1,0.3-0.1,0.6,0.1,0.9s0.5,0.4,0.8,0.4h5v4h2v-9h-2V34.5z"/><path d="M26,40.5h8v-14h-8V40.5z M28,28.5h4v10h-4V28.5z"/></svg>